<svg width="280" height="49" viewBox="0 0 280 49" fill="none" xmlns="http://www.w3.org/2000/svg">
<path d="M0.75 38V33.3L16.65 14.5L18 17.1H1.1V11.1H24.3V15.8L8.4 34.6L7 32H24.75V38H0.75ZM42.7566 38.4C39.69 38.4 36.99 37.8 34.6566 36.6C32.3566 35.4 30.5733 33.7667 29.3066 31.7C28.04 29.6 27.4066 27.2167 27.4066 24.55C27.4066 21.85 28.0233 19.4667 29.2566 17.4C30.5233 15.3 32.24 13.6667 34.4066 12.5C36.5733 11.3 39.0233 10.7 41.7566 10.7C44.39 10.7 46.7566 11.2667 48.8566 12.4C50.99 13.5 52.6733 15.1 53.9066 17.2C55.14 19.2667 55.7566 21.75 55.7566 24.65C55.7566 24.95 55.74 25.3 55.7066 25.7C55.6733 26.0667 55.64 26.4167 55.6066 26.75H33.7566V22.2H51.5066L48.5066 23.55C48.5066 22.15 48.2233 20.9333 47.6566 19.9C47.09 18.8667 46.3066 18.0667 45.3066 17.5C44.3066 16.9 43.14 16.6 41.8066 16.6C40.4733 16.6 39.29 16.9 38.2566 17.5C37.2566 18.0667 36.4733 18.8833 35.9066 19.95C35.34 20.9833 35.0566 22.2167 35.0566 23.65V24.85C35.0566 26.3167 35.3733 27.6167 36.0066 28.75C36.6733 29.85 37.59 30.7 38.7566 31.3C39.9566 31.8667 41.3566 32.15 42.9566 32.15C44.39 32.15 45.64 31.9333 46.7066 31.5C47.8066 31.0667 48.8066 30.4167 49.7066 29.55L53.8566 34.05C52.6233 35.45 51.0733 36.5333 49.2066 37.3C47.34 38.0333 45.19 38.4 42.7566 38.4ZM76.8496 38.4C74.4829 38.4 72.4496 37.9 70.7496 36.9C69.0496 35.9 67.7496 34.3833 66.8496 32.35C65.9496 30.2833 65.4996 27.6833 65.4996 24.55C65.4996 21.3833 65.9663 18.7833 66.8996 16.75C67.8663 14.7167 69.1996 13.2 70.8996 12.2C72.5996 11.2 74.5829 10.7 76.8496 10.7C79.3829 10.7 81.6496 11.2667 83.6496 12.4C85.6829 13.5333 87.2829 15.1333 88.4496 17.2C89.6496 19.2667 90.2496 21.7167 90.2496 24.55C90.2496 27.35 89.6496 29.7833 88.4496 31.85C87.2829 33.9167 85.6829 35.5333 83.6496 36.7C81.6496 37.8333 79.3829 38.4 76.8496 38.4ZM60.9496 38V0.899998H68.7496V16.55L68.2496 24.5L68.3996 32.5V38H60.9496ZM75.4996 32C76.7996 32 77.9496 31.7 78.9496 31.1C79.9829 30.5 80.7996 29.65 81.3996 28.55C82.0329 27.4167 82.3496 26.0833 82.3496 24.55C82.3496 22.9833 82.0329 21.65 81.3996 20.55C80.7996 19.45 79.9829 18.6 78.9496 18C77.9496 17.4 76.7996 17.1 75.4996 17.1C74.1996 17.1 73.0329 17.4 71.9996 18C70.9663 18.6 70.1496 19.45 69.5496 20.55C68.9496 21.65 68.6496 22.9833 68.6496 24.55C68.6496 26.0833 68.9496 27.4167 69.5496 28.55C70.1496 29.65 70.9663 30.5 71.9996 31.1C73.0329 31.7 74.1996 32 75.4996 32ZM95.4711 38V11.1H102.921V18.7L101.871 16.5C102.671 14.6 103.954 13.1667 105.721 12.2C107.488 11.2 109.638 10.7 112.171 10.7V17.9C111.838 17.8667 111.538 17.85 111.271 17.85C111.004 17.8167 110.721 17.8 110.421 17.8C108.288 17.8 106.554 18.4167 105.221 19.65C103.921 20.85 103.271 22.7333 103.271 25.3V38H95.4711ZM131.551 38V32.75L131.051 31.6V22.2C131.051 20.5333 130.535 19.2333 129.501 18.3C128.501 17.3667 126.951 16.9 124.851 16.9C123.418 16.9 122.001 17.1333 120.601 17.6C119.235 18.0333 118.068 18.6333 117.101 19.4L114.301 13.95C115.768 12.9167 117.535 12.1167 119.601 11.55C121.668 10.9833 123.768 10.7 125.901 10.7C130.001 10.7 133.185 11.6667 135.451 13.6C137.718 15.5333 138.851 18.55 138.851 22.65V38H131.551ZM123.351 38.4C121.251 38.4 119.451 38.05 117.951 37.35C116.451 36.6167 115.301 35.6333 114.501 34.4C113.701 33.1667 113.301 31.7833 113.301 30.25C113.301 28.65 113.685 27.25 114.451 26.05C115.251 24.85 116.501 23.9167 118.201 23.25C119.901 22.55 122.118 22.2 124.851 22.2H132.001V26.75H125.701C123.868 26.75 122.601 27.05 121.901 27.65C121.235 28.25 120.901 29 120.901 29.9C120.901 30.9 121.285 31.7 122.051 32.3C122.851 32.8667 123.935 33.15 125.301 33.15C126.601 33.15 127.768 32.85 128.801 32.25C129.835 31.6167 130.585 30.7 131.051 29.5L132.251 33.1C131.685 34.8333 130.651 36.15 129.151 37.05C127.651 37.95 125.718 38.4 123.351 38.4ZM148.861 38.4C147.527 38.4 146.377 37.95 145.411 37.05C144.477 36.1167 144.011 34.9333 144.011 33.5C144.011 32.0667 144.477 30.9167 145.411 30.05C146.377 29.15 147.527 28.7 148.861 28.7C150.227 28.7 151.377 29.15 152.311 30.05C153.244 30.9167 153.711 32.0667 153.711 33.5C153.711 34.9333 153.244 36.1167 152.311 37.05C151.377 37.95 150.227 38.4 148.861 38.4ZM158.996 38V0.899998H166.796V38H158.996ZM187.386 38.4C184.319 38.4 181.619 37.8 179.286 36.6C176.986 35.4 175.202 33.7667 173.936 31.7C172.669 29.6 172.036 27.2167 172.036 24.55C172.036 21.85 172.652 19.4667 173.886 17.4C175.152 15.3 176.869 13.6667 179.036 12.5C181.202 11.3 183.652 10.7 186.386 10.7C189.019 10.7 191.386 11.2667 193.486 12.4C195.619 13.5 197.302 15.1 198.536 17.2C199.769 19.2667 200.386 21.75 200.386 24.65C200.386 24.95 200.369 25.3 200.336 25.7C200.302 26.0667 200.269 26.4167 200.236 26.75H178.386V22.2H196.136L193.136 23.55C193.136 22.15 192.852 20.9333 192.286 19.9C191.719 18.8667 190.936 18.0667 189.936 17.5C188.936 16.9 187.769 16.6 186.436 16.6C185.102 16.6 183.919 16.9 182.886 17.5C181.886 18.0667 181.102 18.8833 180.536 19.95C179.969 20.9833 179.686 22.2167 179.686 23.65V24.85C179.686 26.3167 180.002 27.6167 180.636 28.75C181.302 29.85 182.219 30.7 183.386 31.3C184.586 31.8667 185.986 32.15 187.586 32.15C189.019 32.15 190.269 31.9333 191.336 31.5C192.436 31.0667 193.436 30.4167 194.336 29.55L198.486 34.05C197.252 35.45 195.702 36.5333 193.836 37.3C191.969 38.0333 189.819 38.4 187.386 38.4ZM218.229 48.1C215.695 48.1 213.245 47.7833 210.879 47.15C208.545 46.55 206.595 45.6333 205.029 44.4L208.129 38.8C209.262 39.7333 210.695 40.4667 212.429 41C214.195 41.5667 215.929 41.85 217.629 41.85C220.395 41.85 222.395 41.2333 223.629 40C224.895 38.7667 225.529 36.9333 225.529 34.5V30.45L226.029 23.7L225.929 16.9V11.1H233.329V33.5C233.329 38.5 232.029 42.1833 229.429 44.55C226.829 46.9167 223.095 48.1 218.229 48.1ZM217.029 36.7C214.529 36.7 212.262 36.1667 210.229 35.1C208.229 34 206.612 32.4833 205.379 30.55C204.179 28.5833 203.579 26.3 203.579 23.7C203.579 21.0667 204.179 18.7833 205.379 16.85C206.612 14.8833 208.229 13.3667 210.229 12.3C212.262 11.2333 214.529 10.7 217.029 10.7C219.295 10.7 221.295 11.1667 223.029 12.1C224.762 13 226.112 14.4167 227.079 16.35C228.045 18.25 228.529 20.7 228.529 23.7C228.529 26.6667 228.045 29.1167 227.079 31.05C226.112 32.95 224.762 34.3667 223.029 35.3C221.295 36.2333 219.295 36.7 217.029 36.7ZM218.579 30.3C219.945 30.3 221.162 30.0333 222.229 29.5C223.295 28.9333 224.129 28.15 224.729 27.15C225.329 26.15 225.629 25 225.629 23.7C225.629 22.3667 225.329 21.2167 224.729 20.25C224.129 19.25 223.295 18.4833 222.229 17.95C221.162 17.3833 219.945 17.1 218.579 17.1C217.212 17.1 215.995 17.3833 214.929 17.95C213.862 18.4833 213.012 19.25 212.379 20.25C211.779 21.2167 211.479 22.3667 211.479 23.7C211.479 25 211.779 26.15 212.379 27.15C213.012 28.15 213.862 28.9333 214.929 29.5C215.995 30.0333 217.212 30.3 218.579 30.3ZM257.088 38V32.75L256.588 31.6V22.2C256.588 20.5333 256.072 19.2333 255.038 18.3C254.038 17.3667 252.488 16.9 250.388 16.9C248.955 16.9 247.538 17.1333 246.138 17.6C244.772 18.0333 243.605 18.6333 242.638 19.4L239.838 13.95C241.305 12.9167 243.072 12.1167 245.138 11.55C247.205 10.9833 249.305 10.7 251.438 10.7C255.538 10.7 258.722 11.6667 260.988 13.6C263.255 15.5333 264.388 18.55 264.388 22.65V38H257.088ZM248.888 38.4C246.788 38.4 244.988 38.05 243.488 37.35C241.988 36.6167 240.838 35.6333 240.038 34.4C239.238 33.1667 238.838 31.7833 238.838 30.25C238.838 28.65 239.222 27.25 239.988 26.05C240.788 24.85 242.038 23.9167 243.738 23.25C245.438 22.55 247.655 22.2 250.388 22.2H257.538V26.75H251.238C249.405 26.75 248.138 27.05 247.438 27.65C246.772 28.25 246.438 29 246.438 29.9C246.438 30.9 246.822 31.7 247.588 32.3C248.388 32.8667 249.472 33.15 250.838 33.15C252.138 33.15 253.305 32.85 254.338 32.25C255.372 31.6167 256.122 30.7 256.588 29.5L257.788 33.1C257.222 34.8333 256.188 36.15 254.688 37.05C253.188 37.95 251.255 38.4 248.888 38.4ZM271.448 38V0.899998H279.248V38H271.448Z" fill="currentColor"/>
</svg>
